<?xml version="1.0" encoding="UTF-8" standalone="no"?>
<!DOCTYPE svg PUBLIC "-//W3C//DTD SVG 1.1//EN" "http://www.w3.org/Graphics/SVG/1.1/DTD/svg11.dtd">
<svg width="100%" height="100%" viewBox="0 0 18750 18750" version="1.1" xmlns="http://www.w3.org/2000/svg" xmlns:xlink="http://www.w3.org/1999/xlink" xml:space="preserve" xmlns:serif="http://www.serif.com/" style="fill-rule:evenodd;clip-rule:evenodd;stroke-linejoin:round;stroke-miterlimit:2;">
    <g transform="matrix(4.16667,0,0,4.16667,0,0)">
        <rect x="0" y="0" width="4500" height="4500" style="fill:rgb(5,17,69);"/>
        <g transform="matrix(1,0,0,1,133.309,342)">
            <path d="M1899.76,14.397C1946.66,4.953 1995.15,0 2044.79,0C2448.67,0 2776.58,327.904 2776.58,731.789C2776.58,1135.67 2448.67,1463.58 2044.79,1463.58C1803.99,1463.58 1590.2,1347.02 1456.8,1167.29C1548.01,1219.38 1653.52,1249.14 1765.93,1249.14C2110.64,1249.14 2390.5,969.28 2390.5,624.57C2390.5,325.776 2180.23,75.705 1899.76,14.397Z" style="fill:rgb(221,221,221);"/>
        </g>
        <path d="M0,2447.59C109.928,2353.38 252.758,2296.43 408.786,2296.43C494.573,2296.43 576.371,2313.65 650.933,2344.82C643.083,2305.17 638.964,2264.17 638.964,2222.21C638.964,1875.18 920.714,1593.43 1267.75,1593.43C1614.79,1593.43 1896.54,1875.18 1896.54,2222.21C1896.54,2236.76 1896.04,2251.18 1895.07,2265.5C1980.31,2222.28 2076.73,2197.91 2178.79,2197.91C2182.96,2197.91 2187.11,2197.95 2191.26,2198.03C2185.33,2163.39 2182.25,2127.77 2182.25,2091.43C2182.25,1744.4 2463.99,1462.65 2811.03,1462.65C3080.16,1462.65 3310.02,1632.09 3399.68,1870.06C3506.47,1786.42 3640.92,1736.55 3786.92,1736.55C3808.05,1736.55 3828.94,1737.6 3849.58,1739.64C3962.45,1571.29 4154.48,1460.39 4372.21,1460.39C4416.01,1460.39 4458.77,1464.88 4500,1473.41L4500,2704.94C4458.77,2713.47 4416.01,2717.96 4372.21,2717.96C4351.08,2717.96 4330.19,2716.91 4309.55,2714.87C4196.68,2883.22 4004.65,2994.12 3786.92,2994.12C3785.39,2994.12 3783.86,2994.12 3782.37,2994.11C3689.31,3202.59 3486.12,3351.24 3246.92,3365.95C3236.77,3704.11 2959.04,3975.53 2618.43,3975.53C2298.95,3975.53 2034.8,3736.75 1994.87,3428.11C1901.49,3399.54 1817.33,3349.82 1747.97,3284.53C1632.6,3420.91 1460.22,3507.57 1267.75,3507.57C1113.63,3507.57 972.389,3452 863.003,3359.84C748.478,3479.48 587.266,3554 408.786,3554C252.758,3554 109.928,3497.05 0,3402.84L0,2447.59Z" style="fill:rgb(45,57,107);"/>
        <path d="M2561.21,4500C2373.16,4368.87 2250,4150.95 2250,3904.5C2250,3624.29 2409.2,3380.97 2642.04,3260.12C2604.68,3172.68 2584,3076.48 2584,2975.5C2584,2575.09 2909.09,2250 3309.5,2250C3520.72,2250 3710.98,2340.46 3843.59,2484.68C3964.26,2395.06 4113.73,2342 4275.5,2342C4353.82,2342 4429.26,2354.44 4500,2377.46L4500,4500L2561.21,4500Z" style="fill:rgb(83,94,142);"/>
        <path d="M0,3006.97C120.392,2909.44 273.675,2851 440.5,2851C756.83,2851 1024.47,3061.13 1111.34,3349.33C1234.74,3149.29 1455.89,3015.85 1707.97,3015.85C2094.59,3015.85 2408.47,3329.74 2408.47,3716.35C2408.47,3750.14 2406.07,3783.38 2401.43,3815.94C2715.37,3885.25 2950.5,4165.38 2950.5,4500L0,4500L0,3006.97Z" style="fill:rgb(115,124,163);"/>
        <g transform="matrix(0.700043,0,0,0.700043,-146.043,721.692)">
            <path d="M995,634L1031.6,746.63L1150.02,746.63L1054.21,816.24L1090.81,928.87L995,859.26L899.191,928.87L935.787,816.24L839.978,746.63L958.404,746.63L995,634Z" style="fill:rgb(181,186,209);"/>
        </g>
        <g transform="matrix(1,0,0,1,440.091,-292)">
            <path d="M995,634L1031.6,746.63L1150.02,746.63L1054.21,816.24L1090.81,928.87L995,859.26L899.191,928.87L935.787,816.24L839.978,746.63L958.404,746.63L995,634Z" style="fill:rgb(181,186,209);"/>
        </g>
        <g transform="matrix(1,0,0,1,2593.48,384.084)">
            <path d="M995,634L1031.6,746.63L1150.02,746.63L1054.21,816.24L1090.81,928.87L995,859.26L899.191,928.87L935.787,816.24L839.978,746.63L958.404,746.63L995,634Z" style="fill:rgb(181,186,209);"/>
        </g>
        <g transform="matrix(0.700043,0,0,0.700043,3309.23,88.067)">
            <path d="M995,634L1031.6,746.63L1150.02,746.63L1054.21,816.24L1090.81,928.87L995,859.26L899.191,928.87L935.787,816.24L839.978,746.63L958.404,746.63L995,634Z" style="fill:rgb(181,186,209);"/>
        </g>
    </g>
</svg>
