<?xml version="1.0" encoding="UTF-8"?>
<svg viewBox="0 0 754.28571 1056.3511" xmlns="http://www.w3.org/2000/svg">
 <defs>
  <linearGradient id="f" x2="0" y1="744.05" y2="1233.5" gradientUnits="userSpaceOnUse">
   <stop stop-color="#fff" offset="0"/>
   <stop stop-color="#daf8f8" offset="1"/>
  </linearGradient>
  <linearGradient id="e" x2="0" y1="613.73" y2="921.07" gradientUnits="userSpaceOnUse">
   <stop stop-color="#f1fcfe" offset="0"/>
   <stop stop-color="#b8f2f2" offset="1"/>
  </linearGradient>
  <linearGradient id="d" x2="0" y1="489.73" y2="752.37" gradientUnits="userSpaceOnUse">
   <stop stop-color="#eafafd" offset="0"/>
   <stop stop-color="#6ae3e3" offset="1"/>
  </linearGradient>
  <linearGradient id="c" x2="0" y1="238.08" y2="409.51" gradientUnits="userSpaceOnUse">
   <stop stop-color="#faff25" offset="0"/>
   <stop stop-color="#ffa328" offset="1"/>
  </linearGradient>
  <radialGradient id="a" cx="-600.61" cy="564.48" r="373.77" gradientUnits="userSpaceOnUse">
   <stop stop-color="#ffffea" offset="0"/>
   <stop stop-color="#ffef5b" offset="1"/>
  </radialGradient>
  <radialGradient id="b" cx="-600" cy="497.04" r="377.14" gradientUnits="userSpaceOnUse">
   <stop stop-color="#fff598" offset="0"/>
   <stop stop-color="#ffb713" offset="1"/>
  </radialGradient>
 </defs>
 <g transform="translate(977.14 -175.62)">
  <path d="m-977.14 175.62h754.29v780h-754.29z" fill="url(#b)"/>
  <path d="m-895.72 176.49 212 252.69-290.66-167.84v43.5l271.91 156.97-271.91-47.938v38.25l265.28 46.781-265.28 46.781v38.281l271.84-47.938-271.84 156.97v43.469l290.69-167.84-222.88 265.59 28.844 24.219 222.88-265.59-118.59 325.84 35.406 12.875 118.59-325.88v346.78h37.656v-346.78l118.59 325.88 35.406-12.875-118.56-325.78 222.84 265.53 28.844-24.219-222.88-265.59 290.69 167.84v-43.469l-271.81-156.97 271.81 47.938v-38.281l-265.31-46.781 265.31-46.781v-38.25l-271.88 47.938 271.88-156.97v-43.5l-290.66 167.81 212-252.66h-49.156l-191.72 228.47 83.156-228.47h-40.094l-78.469 215.62v-215.62h-37.656v215.62l-78.469-215.62h-40.094l83.125 228.47-191.69-228.47h-49.156z" fill="url(#a)"/>
  <path transform="matrix(1.05 0 0 1.05 -993.61 162.78)" d="m460 323.79c0 47.339-38.376 85.714-85.714 85.714s-85.714-38.376-85.714-85.714 38.376-85.714 85.714-85.714 85.714 38.376 85.714 85.714z" fill="url(#c)"/>
  <path d="m-226.62 1227.4v-670.83c-13.145 0-17.721 16.903-22.923 28.069-6.1138-21.09-25.562-36.527-48.623-36.527-13.301 0-25.385 5.1413-34.421 13.529-1.3267-35.662-30.662-64.172-66.648-64.172-27.512 0-51.114 16.655-61.306 40.436-7.1863-11.544-19.973-19.241-34.573-19.241-22.486 0-40.719 18.232-40.719 40.719 0 2.6959 0.26018 5.3337 0.76012 7.8831-10.439-7.8149-23.417-12.444-37.461-12.444-18.714 0-35.49 8.2136-46.951 21.239-3.314-37.504-34.798-66.909-73.163-66.909-28.824 0-53.77 16.6-65.801 40.762-3.7306-1.507-7.7255-2.499-11.901-2.8666 0.16998-1.6882 0.2606-3.4138 0.2606-5.1468 0-27.962-22.659-50.621-50.621-50.621-27.766 0-50.306 22.344-50.621 50.035-10.967-10.112-25.624-16.287-41.717-16.287-33.994 0-61.545 27.551-61.545 61.545v640.83h747.97z" fill="url(#d)"/>
  <path d="m-227.2 659.47v567.44h-746.83v-527.4c0.47157-3.5714 14.583-28.186 40.636-28.186 37.031 0 68.962 21.829 83.632 53.32 7.6743-26.473 32.087-45.851 61.034-45.851 16.696 0 31.865 6.4536 43.206 16.983 1.6653-44.764 38.488-80.552 83.66-80.552 34.534 0 64.16 20.906 76.954 50.757 9.0206-14.491 25.071-24.152 43.397-24.152 28.226 0 51.112 22.886 51.112 51.112 0 3.384-0.3266 6.6951-0.95413 9.8952 13.104-9.8096 29.395-15.62 47.023-15.62 23.49 0 44.548 10.31 58.935 26.66 4.1599-47.077 43.68-83.987 91.837-83.987 26.747 0 49.51 11.388 66.353 29.579z" fill="url(#e)"/>
  <path d="m-972.99 818.94v413.02h744.64v-304.87c2.8571-44.071-49.872-82.085-92.114-91.487-48.201-10.728-114.57 19.464-139.46 49.959 0.41141-4.1661 0.6191-8.4144 0.6191-12.689 0-70.321-57.007-127.33-127.33-127.33-63.576 0-116.26 46.619-125.78 107.52-10.553-31.101-40.005-53.451-74.673-53.451-38.832 0-71.074 28.071-77.591 65.035-27.199-28.175-66.057-45.714-108.31-45.714z" fill="url(#f)"/>
 </g>
</svg>
